<?xml version="1.0" encoding="UTF-8" standalone="no"?>
<!-- Created with Inkscape (http://www.inkscape.org/) -->

<svg
   width="100mm"
   height="100mm"
   viewBox="0 0 100 100"
   version="1.1"
   id="svg5"
   inkscape:version="1.2.1 (9c6d41e410, 2022-07-14)"
   sodipodi:docname="flip.svg"
   inkscape:export-filename="..\..\..\Downloads\Scouting2023-main\Scouting2023-main\svg\reckless.svg"
   inkscape:export-xdpi="100"
   inkscape:export-ydpi="100"
   xml:space="preserve"
   xmlns:inkscape="http://www.inkscape.org/namespaces/inkscape"
   xmlns:sodipodi="http://sodipodi.sourceforge.net/DTD/sodipodi-0.dtd"
   xmlns:xlink="http://www.w3.org/1999/xlink"
   xmlns="http://www.w3.org/2000/svg"
   xmlns:svg="http://www.w3.org/2000/svg"><sodipodi:namedview
     id="namedview7"
     pagecolor="#ffffff"
     bordercolor="#999999"
     borderopacity="1"
     inkscape:showpageshadow="0"
     inkscape:pageopacity="0"
     inkscape:pagecheckerboard="0"
     inkscape:deskcolor="#d1d1d1"
     inkscape:document-units="mm"
     showgrid="false"
     inkscape:zoom="0.51262948"
     inkscape:cx="197.02339"
     inkscape:cy="372.5888"
     inkscape:window-width="1366"
     inkscape:window-height="705"
     inkscape:window-x="-8"
     inkscape:window-y="-8"
     inkscape:window-maximized="1"
     inkscape:current-layer="layer1" /><defs
     id="defs2"><inkscape:path-effect
       effect="fillet_chamfer"
       id="path-effect3233"
       is_visible="true"
       lpeversion="1"
       nodesatellites_param="F,0,0,1,0,9.2604167,0,1 @ F,0,0,1,0,9.2604167,0,1 @ F,0,0,1,0,9.2604167,0,1 @ F,0,0,1,0,9.2604167,0,1"
       unit="px"
       method="auto"
       mode="F"
       radius="35"
       chamfer_steps="1"
       flexible="false"
       use_knot_distance="true"
       apply_no_radius="true"
       apply_with_radius="true"
       only_selected="false"
       hide_knots="false" /><color-profile
       name="Agfa-:-Swop-Standard"
       xlink:href="../../../../../../../../../../../../Windows/system32/spool/drivers/color/RSWOP.icm"
       id="color-profile9462" /></defs><g
     inkscape:label="Layer 1"
     inkscape:groupmode="layer"
     id="layer1"><path
       style="fill:none;stroke:#000000;stroke-width:4.58349;stroke-linecap:butt;stroke-linejoin:miter;stroke-dasharray:none;stroke-opacity:1"
       d="M 59.214431,59.685937 59.782179,47.164864 45.83127,41.476235 38.910558,46.641153"
       id="path3237" /><g
       id="g8546"
       transform="translate(0,-1.0583333)"><circle
         style="fill:none;fill-opacity:0.444776;stroke:#000000;stroke-width:5;stroke-linecap:square;stroke-linejoin:round;stroke-dasharray:none;stroke-opacity:1;paint-order:stroke markers fill"
         id="path8540"
         cx="50.364323"
         cy="66.057556"
         r="21.167614" /><path
         style="fill:none;stroke:#000000;stroke-width:4;stroke-linecap:butt;stroke-linejoin:miter;stroke-dasharray:none;stroke-opacity:1"
         d="M 33.941173,79.196073 66.057552,52.919035"
         id="path8542" /></g><g
       id="g8346"
       transform="matrix(1.1771536,0,0,1.1771536,-10.028117,-12.632424)"><g
         id="g8352"
         transform="translate(-0.31003504,2.3252628)"><circle
           style="fill:#000000;fill-opacity:1;stroke:none;stroke-width:6.25952;stroke-linecap:square;stroke-linejoin:round;stroke-dasharray:none;paint-order:stroke markers fill"
           id="path5320"
           cx="51.498234"
           cy="77.250153"
           r="6.4614534"
           inkscape:transform-center-x="-0.76061422"
           inkscape:transform-center-y="0.38030489" /><path
           style="fill:none;fill-opacity:0.444776;stroke:#000000;stroke-width:3.73507;stroke-linecap:square;stroke-linejoin:round;stroke-dasharray:none;stroke-opacity:1;paint-order:stroke markers fill"
           id="path6841"
           d="m 43.286544,68.688797 a 12.161185,12.161185 0 0 1 16.684437,0.463904"
           sodipodi:type="arc"
           sodipodi:arc-type="arc"
           sodipodi:open="true"
           sodipodi:start="3.9838849"
           sodipodi:end="5.4964879"
           sodipodi:ry="12.161185"
           sodipodi:rx="12.161185"
           sodipodi:cy="77.763123"
           sodipodi:cx="51.382904" /><path
           style="fill:none;fill-opacity:0.444776;stroke:#000000;stroke-width:3.39803;stroke-linecap:square;stroke-linejoin:round;stroke-dasharray:none;stroke-opacity:1;paint-order:stroke markers fill"
           id="path6841-0"
           sodipodi:type="arc"
           sodipodi:cx="51.40163"
           sodipodi:cy="78.388016"
           sodipodi:rx="20.35499"
           sodipodi:ry="20.35499"
           sodipodi:start="3.9894489"
           sodipodi:end="5.4659658"
           sodipodi:arc-type="arc"
           d="m 37.934928,63.124545 a 20.35499,20.35499 0 0 1 27.394635,0.419674"
           sodipodi:open="true" /><path
           style="fill:none;fill-opacity:0.444776;stroke:#000000;stroke-width:3.39803;stroke-linecap:square;stroke-linejoin:round;stroke-dasharray:none;stroke-opacity:1;paint-order:stroke markers fill"
           id="path6841-0-5"
           sodipodi:type="arc"
           sodipodi:cx="51.751011"
           sodipodi:cy="78.601555"
           sodipodi:rx="27.277826"
           sodipodi:ry="27.277826"
           sodipodi:start="3.9839282"
           sodipodi:end="5.4026878"
           sodipodi:arc-type="arc"
           d="M 33.591566,58.246841 A 27.277826,27.277826 0 0 1 69.120647,57.568829"
           sodipodi:open="true" /></g></g><g
       style="fill:none"
       id="g8737"
       transform="matrix(0.40665625,0,0,0.40665625,19.344545,22.408395)"><path
         fill-rule="evenodd"
         clip-rule="evenodd"
         d="m 129.49,114.51 c -0.369,2.451 -1.303,4.783 -2.728,6.812 -1.425,2.029 -3.301,3.699 -5.482,4.878 -0.604,0.335 -1.237,0.616 -1.89,0.84 0.83,11 -16.65,15 -26.07,12.38 l 3.5,12.24 -9,0.32 -15.75,-22.55 c -5.31,1.5 -11.58,2.22 -15.63,-4.28 -0.3679,-0.597 -0.7018,-1.215 -1,-1.85 -1.0302,0.21 -2.0786,0.317 -3.13,0.32 -3,0 -8,-0.9 -10.54,-2.66 -2.0137,-1.335 -3.6112,-3.21 -4.61,-5.41 -5.41,0.74 -10,-0.53 -13,-3.67 -3.8,-3.91 -4.88,-10.37 -2.9,-17.3 2.61,-9.25 10.55,-19.67 26.33,-23.58 1.3689,-1.7018 3.0072,-3.1678 4.85,-4.34 9.91,-6.35 26,-6.9 38.21,-0.87 4.7336,-0.8818 9.62,-0.414 14.1,1.35 8.78,3.29 15.16,10.17 16.36,17.16 2.377,1.2317 4.323,3.1568 5.58,5.52 2.63,4.94 3,9.89 1.23,13.89 1.667,3.339 2.218,7.125 1.57,10.8 z m -6.48,-5.2 c -1.398,0.738 -2.954,1.124 -4.535,1.124 -1.581,0 -3.137,-0.386 -4.535,-1.124 l 0.73,-4.85 c 3.08,0.3 5.59,-0.66 6.9,-2.63 1.47,-2.19 1.24,-5.44 -0.62,-8.93 -2.08,-3.91 -6.57,-4.53 -9.06,-4.56 h -0.16 c -6.24,0 -12.6,3.55 -15.17,8.18 L 92.82,94.73 C 93.5553,92.3449 94.8046,90.15 96.48,88.3 95.0376,87.0754 93.9474,85.4887 93.3217,83.703 92.696,81.9173 92.5574,79.9971 92.92,78.14 l 3.69,-0.34 c 0.1689,1.502 0.79,2.9172 1.7811,4.0583 0.9911,1.1411 2.3059,1.9542 3.7689,2.3317 3.078,-1.3739 6.42,-2.0565 9.79,-2 0.48,0 0.94,0.05 1.41,0.08 -2.391,-4.2388 -6.18,-7.5155 -10.72,-9.27 -11.08,-4.3 -18.55,2.37 -20.26,4.67 -4.12,5.52 -1.48,10.74 0.53,14.13 l -3.3,3 c -2.874,-2.486 -4.8025,-5.8873 -5.46,-9.63 -4.23,1.27 -9.91,1 -13.09,-4.43 l 3,-2.06 c 3.37,2.52 8.72,2.3 11.26,-0.81 0.6052,-1.3751 1.3705,-2.6741 2.28,-3.87 1.444,-1.907 3.1864,-3.5684 5.16,-4.92 -8.29,-2.26 -20,-1.89 -27.08,2.65 -1.9132,1.111 -3.488,2.7217 -4.5556,4.6595 -1.0675,1.9379 -1.5876,4.1297 -1.5044,6.3405 0,3.57 2.8,9.21 6.57,10.09 L 54,97.07 C 51.5946,96.5129 49.4109,95.2487 47.73,93.44 L 44.48,97.58 41.23,96 44.41,87.68 c -0.5196,-1.616 -0.786,-3.3026 -0.79,-5 0.008,-1.3439 0.1487,-2.6837 0.42,-4 -10,4.13 -14.94,11 -16.75,17.28 -1.39,4.83 -0.85,9.19 1.43,11.53 1.81,1.86 4.58,2.3 7.19,2.13 l 7,-5.45 2.3,1.94 -2.08,6.82 c 1.09,3.47 4.66,5.26 11.17,4 0.3375,-2.761 1.4272,-5.376 3.15,-7.56 1.2633,-1.818 2.9346,-3.314 4.88,-4.37 l 3.42,-9.21 3.42,-0.15 -0.37,7.55 c 5.75,-0.59 12.18,0.58 18.17,-0.32 l 1.1,4 c -8.78,4.06 -17.77,-2.56 -25.92,6.17 -2.93,3.14 -1.81,5.87 0,8.62 2.61,3.93 7.51,1.57 12.52,0 7.59,-2.32 13.1,-4 23.49,-3.15 -2.48,-4.71 -2.24,-10.4 1.08,-16.66 l 4.89,1.93 c -3.43,7.91 -0.22,12.49 2,14.51 3.43,3.12 8.59,4.06 12,2.18 1.306,-0.721 2.429,-1.733 3.282,-2.957 0.853,-1.224 1.413,-2.628 1.638,-4.103 0.225,-1.359 0.208,-2.747 -0.05,-4.1 z"
         fill="#000000"
         id="path8728" /></g><g
       id="g8340"
       transform="matrix(1.1771536,0,0,1.1771536,-10.028117,-12.632424)"><path
         style="fill:#c45000;fill-opacity:1;stroke:none;stroke-width:0.264583px;stroke-linecap:butt;stroke-linejoin:miter;stroke-opacity:1"
         d="M 92.127473,84.842726 54.681785,14.637298 A 4.9388455,4.9388455 179.99802 0 0 45.966158,14.6376 L 8.5193404,84.856854 a 5.5555068,5.5555068 59.03067 0 0 4.9028856,8.169676 l 27.641046,-0.0043 46.16188,-0.0072 a 5.5570392,5.5570392 120.95839 0 0 4.902321,-8.172268 z"
         id="path292-2-2"
         sodipodi:nodetypes="ccccc"
         inkscape:path-effect="#path-effect3233"
         inkscape:original-d="M 96.485569,93.013547 50.323689,6.4664773 4.1618099,93.027977 50.323689,93.020762 Z"
         transform="matrix(0.84950682,0,0,0.84950682,8.5189537,10.73133)" /></g><g
       id="g5197"
       transform="matrix(-0.8686519,-0.32311272,0.3326881,-0.8436505,65.944503,125.07348)"
       inkscape:transform-center-x="-1.1597311"
       inkscape:transform-center-y="1.691307"><g
         id="g3241"
         transform="translate(5.4193625,0.77419465)"><path
           style="fill:none;stroke:#000000;stroke-width:10;stroke-linecap:butt;stroke-linejoin:miter;stroke-dasharray:none;stroke-opacity:1"
           d="M 25.290358,81.290437 59.612987,52.129105"
           id="path3235" /></g><circle
         style="fill:#000000;fill-opacity:1;stroke:none;stroke-width:7.64214;stroke-linecap:square;stroke-linejoin:round;stroke-dasharray:none;paint-order:stroke markers fill"
         id="path3297-2"
         cx="51.393757"
         cy="51.768322"
         r="5.5220795" /><circle
         style="fill:#000000;fill-opacity:1;stroke:none;stroke-width:7.64214;stroke-linecap:square;stroke-linejoin:round;stroke-dasharray:none;paint-order:stroke markers fill"
         id="path3297-2-5"
         cx="32.634022"
         cy="67.511345"
         r="5.5220795" /></g><path
       style="fill:none;stroke:#000000;stroke-width:5;stroke-linecap:butt;stroke-linejoin:miter;stroke-dasharray:none;stroke-opacity:1"
       d="m 40.258122,67.612999 c 0,0 5.677427,1.548389 5.677427,8.774205 0,7.225815 -9.806465,6.193556 -10.838724,12.387113"
       id="path9110"
       sodipodi:nodetypes="csc" /><path
       style="fill:none;stroke:#000000;stroke-width:5;stroke-linecap:butt;stroke-linejoin:miter;stroke-dasharray:none;stroke-opacity:1"
       d="m 61.667302,60.729393 c 0,0 5.677427,1.548388 5.677427,8.774204 0,7.225815 -13.419373,7.741945 -10.838724,17.548411"
       id="path9110-3"
       sodipodi:nodetypes="csc" /></g></svg>
